<?xml version="1.0" encoding="UTF-8"?><svg id="Layer_1" xmlns="http://www.w3.org/2000/svg" viewBox="0 0 1367.54 299.67"><defs><style>.cls-1{opacity:.6;}.cls-2{fill:#fff;stroke-width:0px;}</style></defs><g class="cls-1"><path class="cls-2" d="M1008.5,135.57h-60.11v115.19h67.55l-2.88,17.84h-84.07V4.21h83.01v17.9h-63.61v95.62h60.11v17.84Z"/><path class="cls-2" d="M1075.53,268.59v-102.19c0-2.57-.4-4.21-.92-5.84l-48.14-156.35h21.16c14.88,51.19,33.27,113.58,37.9,134.69h.4c4.88-21.55,23.87-86.55,37.63-134.69h20.51l-48.33,156.99c-.4,1.65-.79,3.42-.79,6.37v101.03h-19.4Z"/><path class="cls-2" d="M1242.4,135.57h-60.11v115.19h67.55l-2.88,17.84h-84.07V4.21h83.01v17.9h-63.61v95.62h60.11v17.84Z"/><path class="cls-2" d="M1286.16,196.48v14.63c0,28.51,10.46,43.45,31.09,43.45s30.83-12.78,30.83-49.89c0-32.69-7.27-46.92-34.77-68.15-28.16-21.89-41.94-34.54-41.94-73.4,0-32.57,9.69-62.6,46.87-62.27,32.84.33,45.22,20.59,45.22,57.53v10.99h-19.34v-10.47c0-24.39-5.1-40.67-26.34-40.67s-27,18.93-27,41.87c0,28.65,5.83,38.08,30.77,57.37,34.72,26.69,45.99,41.12,45.99,84.78,0,36.94-8.87,69.63-50.22,69.63-38.36,0-50.57-25.74-50.57-60.57v-14.83h19.4Z"/></g><path class="cls-2" d="M40.78,190.78v16.34c0,19.67,5.9,30.63,21.4,30.63s20.01-15.06,20.01-32.22c0-28.42-6.13-37.23-34.48-59.6C19.25,123.46,4.05,109.1,4.05,69.96,4.05,35.12,14.6-.05,62.32,0c48.8.05,56.33,34.84,56.33,63.52v14.12h-40.43v-13.03c0-18.41-3.1-29.55-16.65-29.55s-16.74,11.52-16.74,29.04c0,18.68,3.54,27.83,26.78,44.83,39.56,29.26,51.69,46.25,51.69,90.48,0,37.5-13.14,73.05-62.48,73.05S0,241.3,0,206.47v-15.69h40.78Z"/><path class="cls-2" d="M274.93,74.38v123.46c0,50.66-21.5,74.62-66.29,74.62s-62.32-24.57-62.32-73.92v-124.46C146.32,23.45,171.81.35,211.22.35s63.71,23.16,63.71,74.03ZM187.84,70.39v132.98c0,21.97,7.93,32.29,22.63,32.29,15.84,0,22.94-9.62,22.94-32.87V70.09c0-20.99-6.44-32.59-22.98-32.59-14.69,0-22.59,10.51-22.59,32.89ZM259.48,243.77l34.67,27.45-23.88,28.46-43.27-34.01,32.48-21.9Z"/><path class="cls-2" d="M345.15,4.21v201.1c0,19.31,6.32,30.3,22.1,30.3s21.4-12.35,21.4-30.25V4.21h40.82v200.31c0,41.72-18.86,67.94-62.97,67.94s-62.13-22.74-62.13-67.79V4.21h40.77Z"/><path class="cls-2" d="M498.23,197.87l-9.26,70.72h-41.47L490.09,4.21h57.61l44.22,264.38h-42.61l-10.4-70.72h-40.67ZM534.09,160.37c-6.04-44.9-11.82-87.52-14.85-117.41h-1.49c-1.14,21.79-9.09,78.4-14.36,117.41h30.69Z"/><path class="cls-2" d="M652.22,150.37v118.22h-40.77V4.21h56.48c40.23,0,63.98,16.12,63.98,63.71v10.07c0,40.63-16.67,50.96-26.91,55.16,15.42,7.24,24.24,18.35,24.24,54.22,0,22.26-.4,65.21,2.42,81.23h-39.38c-3.51-15.97-2.77-59.4-2.77-78.6,0-32.23-4.15-39.62-27.81-39.62h-9.46ZM652.22,116.71h9.35c21.58,0,29.51-8.13,29.51-36.88v-9.07c0-20.44-4.23-32.88-27.34-32.88h-11.52v78.83Z"/><path class="cls-2" d="M860.78,147.82h-58.12v83.27h66.98l-5.16,37.5h-102.59V4.21h102.1v37.85h-61.33v68.27h58.12v37.5Z"/></svg>