<svg width="103" height="83" viewBox="0 0 103 83" fill="none" xmlns="http://www.w3.org/2000/svg">
<path d="M11.7717 60.2537L25.1349 28.593L28.844 34.6206L27.6114 49.8217L11.7717 60.2537Z" fill="#D9335B"/>
<path d="M84.4497 15.465L50.0552 13.2673L53.7643 19.2949L67.8908 25.0488L84.4497 15.465Z" fill="#D9335B"/>
<path d="M94.8095 29.6163L87.0142 16.9491C86.111 15.4819 84.1889 15.0239 82.7206 15.9272L53.0077 34.2028L50.8738 35.5139L44.8637 39.2115L43.8814 39.8157L27.6124 49.8217L13.0184 58.7975C11.5501 59.7009 11.0909 61.6223 11.994 63.0895L19.7894 75.7567C22.0215 79.3833 26.7731 80.5146 30.4025 78.282L51.7637 65.144C55.3931 62.9114 56.5257 58.1622 54.2936 54.5356L49.3711 46.5361L55.3818 42.8402L60.3037 50.838C62.5364 54.4662 67.2874 55.596 70.9184 53.3627L92.278 40.2254C95.908 37.9943 97.0416 33.2429 94.8095 29.6163ZM50.7755 59.6194L25.9155 74.9084C25.7103 75.0346 25.4434 74.9715 25.3173 74.7664L17.5486 62.1429L43.1491 46.3978L50.9178 59.0213C51.044 59.2264 50.9792 59.4938 50.7755 59.6194ZM91.2898 34.7007L66.4305 49.9913C66.2268 50.1168 65.9577 50.0528 65.8322 49.8493L58.0651 37.2252L83.665 21.4786L91.4328 34.1043C91.5583 34.3077 91.495 34.5745 91.2898 34.7007Z" fill="#D9335B"/>
<g opacity="0.6">
<path d="M50.9816 58.833L43.3667 46.418L17.4893 62.3362L25.1041 74.7511C25.2278 74.9528 25.4944 75.0121 25.7019 74.8845L50.8307 59.4274C51.0366 59.3005 51.1052 59.0346 50.9816 58.833ZM35.5503 66.5362C32.4842 67.7875 29.04 66.3714 27.8545 63.3738C26.669 60.3761 28.1922 56.9346 31.2582 55.6833C34.3243 54.432 37.7685 55.848 38.9534 58.8442C40.1383 61.8403 38.6148 65.2855 35.5503 66.5362Z" fill="#D9335B"/>
</g>
<g opacity="0.6">
<path d="M91.4958 33.9157L83.8819 21.4986L58.005 37.4183L65.6183 49.8339C65.7413 50.034 66.0102 50.0942 66.216 49.9673L91.3443 34.5086C91.5518 34.381 91.6188 34.1159 91.4958 33.9157ZM76.9366 41.3453C73.8721 42.5959 70.4263 41.1805 69.2414 38.1844C68.0565 35.1883 69.5806 31.7446 72.6451 30.494C75.7096 29.2433 79.1554 30.6587 80.3403 33.6548C81.5252 36.6509 80.0026 40.094 76.9366 41.3453Z" fill="#D9335B"/>
</g>
<path opacity="0.9" d="M72.5772 30.418C69.5368 31.6423 68.0634 35.0989 69.2869 38.1373C70.5104 41.1757 73.968 42.6467 77.0084 41.4224C80.0488 40.198 81.5222 36.7415 80.2987 33.7031C79.0752 30.6647 75.6192 29.1931 72.5772 30.418ZM75.4234 37.4862C74.5578 37.8348 73.574 37.4162 73.2257 36.5512C72.8774 35.6862 73.2966 34.7027 74.1622 34.3542C75.0278 34.0056 76.0116 34.4242 76.3599 35.2892C76.7082 36.1541 76.289 37.1377 75.4234 37.4862Z" fill="#D9335B"/>
<path opacity="0.9" d="M31.1949 55.599C28.1529 56.8239 26.6811 60.2799 27.9046 63.3183C29.1281 66.3566 32.5847 67.8298 35.6267 66.6049C38.6687 65.3799 40.1405 61.924 38.9164 58.884C37.6923 55.8441 34.2353 54.3747 31.1949 55.599ZM34.0466 62.5997C33.181 62.9482 32.1972 62.5296 31.8489 61.6647C31.5006 60.7997 31.9198 59.8161 32.7854 59.4676C33.6509 59.1191 34.6347 59.5376 34.9831 60.4026C35.3314 61.2676 34.9121 62.2511 34.0466 62.5997Z" fill="#D9335B"/>
<path opacity="0.2" d="M76.3595 35.2893C76.7078 36.1542 76.2886 37.1378 75.423 37.4863C74.5574 37.8349 73.5736 37.4163 73.2253 36.5513C72.877 35.6863 73.2962 34.7028 74.1618 34.3543C75.0274 34.0057 76.0112 34.4243 76.3595 35.2893Z" fill="#D9335B"/>
<path opacity="0.2" d="M34.0466 62.5997C34.912 62.2512 35.3313 61.2675 34.983 60.4027C34.6348 59.5378 33.6508 59.1192 32.7854 59.4677C31.9199 59.8162 31.5006 60.7998 31.8489 61.6647C32.1971 62.5296 33.1811 62.9482 34.0466 62.5997Z" fill="#D9335B"/>
</svg>
