<svg width="63" height="63" viewBox="0 0 63 63" fill="none" xmlns="http://www.w3.org/2000/svg">
<rect width="63" height="63" rx="10" fill="#221C1E"/>
<path d="M8.57836 40.6688L16.0455 22.9774L18.1181 26.3455L17.4293 34.8396L8.57836 40.6688Z" fill="#FF4773"/>
<path d="M49.1893 15.6416L29.9702 14.4136L32.0428 17.7817L39.9365 20.9969L49.1893 15.6416Z" fill="#FF4773"/>
<path d="M54.9779 23.5492L50.622 16.4709C50.1174 15.6511 49.0433 15.3951 48.2229 15.8999L31.6198 26.112L30.4274 26.8446L27.069 28.9108L26.5201 29.2484L17.4293 34.8396L9.27444 39.8552C8.45396 40.3599 8.19738 41.4336 8.70202 42.2534L13.0579 49.3316C14.3052 51.3581 16.9603 51.9903 18.9884 50.7427L30.9246 43.4015C32.9527 42.1539 33.5856 39.5001 32.3383 37.4736L29.5877 33.0037L32.9464 30.9384L35.6967 35.4075C36.9443 37.4349 39.599 38.0662 41.628 36.8183L53.5634 29.4773C55.5918 28.2306 56.2252 25.5756 54.9779 23.5492ZM30.3725 40.3144L16.4811 48.8576C16.3664 48.9281 16.2173 48.8929 16.1468 48.7783L11.8058 41.7245L26.111 32.9264L30.452 39.9802C30.5225 40.0948 30.4863 40.2442 30.3725 40.3144ZM53.0112 26.3902L39.1202 34.9344C39.0064 35.0045 38.856 34.9687 38.7859 34.855L34.4457 27.8009L48.7506 19.0019L53.0911 26.057C53.1612 26.1707 53.1259 26.3197 53.0112 26.3902Z" fill="#FF4773"/>
<g opacity="0.6">
<path d="M30.4877 39.875L26.2327 32.9377L11.7728 41.8325L16.0278 48.7698C16.0969 48.8825 16.2459 48.9156 16.3618 48.8443L30.4034 40.2071C30.5185 40.1362 30.5568 39.9877 30.4877 39.875ZM21.865 44.1794C20.1517 44.8786 18.2271 44.0874 17.5647 42.4123C16.9022 40.7373 17.7534 38.8142 19.4666 38.115C21.1799 37.4158 23.1045 38.2071 23.7666 39.8812C24.4287 41.5554 23.5774 43.4806 21.865 44.1794Z" fill="#FF4773"/>
</g>
<g opacity="0.6">
<path d="M53.1263 25.9517L48.8718 19.0132L34.4123 27.9089L38.6664 34.8465C38.7352 34.9583 38.8854 34.9919 39.0005 34.921L53.0417 26.283C53.1576 26.2117 53.1951 26.0635 53.1263 25.9517ZM44.9909 30.1032C43.2785 30.802 41.3531 30.0111 40.691 28.337C40.0289 26.6628 40.8805 24.7385 42.5929 24.0397C44.3053 23.3408 46.2308 24.1317 46.8929 25.8059C47.555 27.4801 46.7042 29.404 44.9909 30.1032Z" fill="#FF4773"/>
</g>
<path opacity="0.9" d="M42.5551 23.9972C40.8562 24.6813 40.0329 26.6128 40.7166 28.3106C41.4002 30.0084 43.3323 30.8304 45.0312 30.1462C46.7302 29.4621 47.5534 27.5306 46.8698 25.8328C46.1861 24.135 44.2549 23.3127 42.5551 23.9972ZM44.1455 27.9468C43.6619 28.1415 43.1121 27.9077 42.9175 27.4243C42.7229 26.941 42.9571 26.3914 43.4408 26.1966C43.9245 26.0019 44.4742 26.2358 44.6688 26.7191C44.8635 27.2024 44.6292 27.752 44.1455 27.9468Z" fill="#FF4773"/>
<path opacity="0.9" d="M19.4311 38.0679C17.7313 38.7524 16.9089 40.6835 17.5925 42.3813C18.2762 44.0791 20.2077 44.9023 21.9075 44.2178C23.6074 43.5333 24.4298 41.6022 23.7458 39.9035C23.0617 38.2049 21.13 37.3838 19.4311 38.0679ZM21.0246 41.9798C20.5409 42.1745 19.9912 41.9406 19.7965 41.4573C19.6019 40.974 19.8362 40.4244 20.3198 40.2296C20.8035 40.0349 21.3532 40.2687 21.5479 40.7521C21.7425 41.2354 21.5082 41.785 21.0246 41.9798Z" fill="#FF4773"/>
<path opacity="0.2" d="M44.6686 26.7191C44.8633 27.2024 44.629 27.752 44.1453 27.9468C43.6617 28.1415 43.1119 27.9076 42.9173 27.4243C42.7227 26.941 42.9569 26.3914 43.4406 26.1966C43.9243 26.0019 44.474 26.2357 44.6686 26.7191Z" fill="#FF4773"/>
<path opacity="0.2" d="M21.0247 41.9797C21.5084 41.785 21.7426 41.2353 21.548 40.752C21.3534 40.2687 20.8036 40.0348 20.32 40.2296C19.8364 40.4243 19.6021 40.974 19.7967 41.4573C19.9913 41.9405 20.5411 42.1745 21.0247 41.9797Z" fill="#FF4773"/>
</svg>
